# xmcd CD database file
#
# Track frame offsets:
#	150
#	19582
#	30735
#
# Disc length: 724 seconds
#
# Revision: 2
# Processed by: cddbd v1.5.2PL0 Copyright (c) Steve Scherf et al.
# Submitted via: CDex 1.70beta2
#
DISCID=1802d203
DTITLE=LOVE, PEACE and TRANCE - HASU KRIYA
DYEAR=1994
DGENRE=Pop
TTITLE0=はしゃマンダラ -Hush-a madala ni pali-
TTITLE1=暗闇のささやき -Whisper In The Dark-
TTITLE2=はす・クリア -HASU KRIYA-
EXTD=YEAR: 1994
EXTT0=
EXTT1=
EXTT2=
PLAYORDER=
